<?xml version="1.0" encoding="UTF-8" standalone="no"?>
<!-- Generator: Adobe Illustrator 19.1.0, SVG Export Plug-In . SVG Version: 6.00 Build 0)  -->

<svg
   xmlns:dc="http://purl.org/dc/elements/1.1/"
   xmlns:cc="http://creativecommons.org/ns#"
   xmlns:rdf="http://www.w3.org/1999/02/22-rdf-syntax-ns#"
   xmlns:svg="http://www.w3.org/2000/svg"
   xmlns="http://www.w3.org/2000/svg"
   xmlns:sodipodi="http://sodipodi.sourceforge.net/DTD/sodipodi-0.dtd"
   xmlns:inkscape="http://www.inkscape.org/namespaces/inkscape"
   version="1.1"
   id="Layer_1"
   x="0px"
   y="0px"
   viewBox="0 0 11.045 16.00036"
   enable-background="new 0 0 64 64"
   inkscape:version="0.91 r13725"
   sodipodi:docname="certificate-svgrepo-CC0-14px.svg"
   width="8.8360004pt"
   height="12.800288pt">
  <metadata
     id="metadata44">
    <rdf:RDF>
      <cc:Work
         rdf:about="">
        <dc:format>image/svg+xml</dc:format>
        <dc:type
           rdf:resource="http://purl.org/dc/dcmitype/StillImage" />
        <dc:title></dc:title>
      </cc:Work>
    </rdf:RDF>
  </metadata>
  <defs
     id="defs42" />
  <sodipodi:namedview
     pagecolor="#ffffff"
     bordercolor="#666666"
     borderopacity="1"
     objecttolerance="10"
     gridtolerance="10"
     guidetolerance="10"
     inkscape:pageopacity="0"
     inkscape:pageshadow="2"
     inkscape:window-width="1920"
     inkscape:window-height="1004"
     id="namedview40"
     showgrid="false"
     inkscape:zoom="11.313708"
     inkscape:cx="35.514211"
     inkscape:cy="-4.0274725"
     inkscape:window-x="1920"
     inkscape:window-y="24"
     inkscape:window-maximized="1"
     inkscape:current-layer="Certificate-file"
     units="pt"
     fit-margin-top="0"
     fit-margin-left="0"
     fit-margin-right="0"
     fit-margin-bottom="0" />
  <!-- width="100%" height="100%"  xml:space="preserve"> -->
  <g
     id="Certificate-file"
     transform="matrix(0.24967619,0,0,0.24967619,-2.4671377,0.01054231)">
    <path
       d="m 54.107651,14.717124 c -0.0053,-0.0955 -0.0238,-0.1876 -0.0559,-0.277901 -0.0102,-0.0285 -0.0171,-0.0568 -0.0298,-0.0841 -0.0481,-0.104599 -0.109001,-0.203899 -0.193299,-0.288499 0,0 -3.4248,-3.4395 -6.8535,-6.8760002 -1.713901,-1.7188001 -3.429703,-3.4356 -4.7188,-4.7227001 -0.953102,-0.9511001 -1.581001,-1.5781001 -2.023403,-1.9677001 -0.0069,-0.0098 -0.0137,-0.0186 -0.0205,-0.0284 -9.99e-4,-0.0019 -0.002,-0.0029 -0.003,-0.0048 l -0.0078,0.0058 c -0.621399,-0.5415 -0.867001,-0.6004 -1.1479,-0.4306 l -26.074699,9e-4 c -1.708,0 -3.0977005,1.3907001 -3.0977005,3.0996001 l 0,50.5655023 c 0,0.866199 0.3369005,1.680599 0.9522005,2.296799 0.605399,0.6026 1.4414,0.948299 2.292899,0.948299 l 13.1514,0 c 0.5527,0 1,-0.4473 1,-1 0,-0.552799 -0.4473,-1 -1,-1 l -13.151399,0 c -0.3271,0 -0.6484,-0.1338 -0.8799,-0.3633 -0.2324,-0.232399 -0.3652,-0.5537 -0.3652,-0.881798 l 0,-50.5655022 c 0,-0.6064 0.492201,-1.0996001 1.0977,-1.0996001 l 25.4626,-9e-4 c 0.0377,2.2823002 -0.0049,8.6077993 -0.0486,12.7186993 -0.0029,0.2676 0.101601,0.524401 0.289101,0.713901 0.1875,0.1904 0.444298,0.2968 0.710899,0.2968 l 12.725598,0 0,38.0997 c 0,0.285103 -0.1152,0.563401 -0.317398,0.765603 -0.204102,0.204097 -0.475602,0.316398 -0.764599,0.316398 l -0.455101,0 c -0.5527,0 -1,0.447201 -1,1 0,0.5527 0.4473,1 1,1 l 0.455101,0 c 0.824199,0 1.598598,-0.3213 2.179699,-0.903301 0.5732,-0.573299 0.902298,-1.367199 0.902298,-2.1787 l 0,-39.0997 c -10e-7,-0.0193 -0.0099,-0.0354 -0.011,-0.0545 z m -13.7038,-0.9455 c 0.0537,-5.2635998 0.0703,-8.3916 0.0547,-10.2724003 2.339802,2.3340001 6.629799,6.6347003 10.253899,10.2724003 l -10.308597,0 z"
       id="path4"
       inkscape:connector-curvature="0" />
    <path
       d="m 46.430149,49.428925 c -0.0371,-0.127301 -0.0993,-0.240101 -0.176498,-0.338402 1.445697,-1.734101 2.317199,-3.9637 2.317199,-6.397999 0,-5.5228 -4.477199,-10 -10,-10 -5.522899,0 -10,4.4772 -10,10 0,2.570801 0.9784,4.907501 2.572501,6.679001 l -3.375302,11.570999 c -0.1103,0.377998 0.0117,0.786201 0.311602,1.042 0.299799,0.254902 0.720699,0.308601 1.077099,0.141601 l 3.401401,-1.616203 2.137699,3.099602 c 0.1884,0.273498 0.498001,0.432697 0.8232,0.432697 0.0566,0 0.113301,-0.0049 0.169899,-0.01469 0.3848,-0.0664 0.695301,-0.349602 0.795903,-0.726605 l 2.294597,-8.561397 2.2943,8.561397 c 0.100602,0.376004 0.410202,0.659203 0.7939,0.726605 0.0577,0.0098 0.115299,0.01469 0.171902,0.01469 0.324199,0 0.6319,-0.157299 0.8213,-0.429699 l 2.143601,-3.083999 3.399398,1.599601 c 0.3554,0.166001 0.775399,0.110298 1.0761,-0.1455 0.2989,-0.254902 0.419998,-0.662102 0.309601,-1.0401 z M 38.57085,34.597324 c 4.4637,0 8.0952,3.631501 8.0952,8.0952 0,4.463799 -3.6315,8.095299 -8.0952,8.095299 -4.463798,0 -8.0953,-3.6315 -8.0953,-8.095299 0,-4.463699 3.631502,-8.0952 8.0953,-8.0952 z m -3.457099,26.0952 2.501629,-7.859698 c -0.279297,-0.404301 -4.526722,-2.317957 -4.969124,-2.106058 l -2.334206,8.635754 2.484199,-8.515098 c 1.300301,0.922599 2.828602,1.539199 4.486203,1.752899 z m 9.800594,-10.299169 c -0.442402,-0.208099 -5.216943,2.058571 -5.495244,2.458971 l 3.028649,7.849998 -2.187599,-8.1632 c 1.648998,-0.281201 3.1577,-0.9632 4.426098,-1.946499 l 2.562301,8.781601 z"
       id="path6"
       inkscape:connector-curvature="0"
       style="fill:#000000"
       sodipodi:nodetypes="ccsssccccccscccccsccccccssssscccccccccccccc" />
    <path
       d="m 38.57085,47.692524 c 2.761399,0 5,-2.238499 5,-5 0,-2.761398 -2.238601,-5 -5,-5 -2.761402,0 -5,2.238602 -5,5 0,2.761501 2.238598,5 5,5 z m 0,-8 c 1.654202,0 3,1.345798 3,3 0,1.654301 -1.345798,3 -3,3 -1.6543,0 -3,-1.345699 -3,-3 0,-1.654202 1.3457,-3 3,-3 z"
       id="path8"
       inkscape:connector-curvature="0" />
    <path
       d="m 38.556315,51.164619 c 4.716534,0 8.540119,-3.823409 8.540119,-8.540119 0,-4.716533 -3.823585,-8.540119 -8.540119,-8.540119 -4.71654,0 -8.540119,3.823586 -8.540119,8.540119 0,4.71671 3.823579,8.540119 8.540119,8.540119 z m 0,-13.66419 c 2.825417,0 5.12407,2.298655 5.12407,5.124071 0,2.825586 -2.298653,5.124072 -5.12407,5.124072 -2.825584,0 -5.124071,-2.298486 -5.124071,-5.124072 0,-2.825416 2.298487,-5.124071 5.124071,-5.124071 z"
       id="path8-3"
       inkscape:connector-curvature="0" />
  </g>
  <g
     id="g10"
     transform="translate(-26.477499,-23.999818)" />
  <g
     id="g12"
     transform="translate(-26.477499,-23.999818)" />
  <g
     id="g14"
     transform="translate(-26.477499,-23.999818)" />
  <g
     id="g16"
     transform="translate(-26.477499,-23.999818)" />
  <g
     id="g18"
     transform="translate(-26.477499,-23.999818)" />
  <g
     id="g20"
     transform="translate(-26.477499,-23.999818)" />
  <g
     id="g22"
     transform="translate(-26.477499,-23.999818)" />
  <g
     id="g24"
     transform="translate(-26.477499,-23.999818)" />
  <g
     id="g26"
     transform="translate(-26.477499,-23.999818)" />
  <g
     id="g28"
     transform="translate(-26.477499,-23.999818)" />
  <g
     id="g30"
     transform="translate(-26.477499,-23.999818)" />
  <g
     id="g32"
     transform="translate(-26.477499,-23.999818)" />
  <g
     id="g34"
     transform="translate(-26.477499,-23.999818)" />
  <g
     id="g36"
     transform="translate(-26.477499,-23.999818)" />
  <g
     id="g38"
     transform="translate(-26.477499,-23.999818)" />
</svg>
